<?xml version="1.0" standalone="no"?>
<!DOCTYPE svg PUBLIC "-//W3C//DTD SVG 20010904//EN"
 "http://www.w3.org/TR/2001/REC-SVG-20010904/DTD/svg10.dtd">
<svg version="1.0" xmlns="http://www.w3.org/2000/svg"
 width="600.000000pt" height="600.000000pt" viewBox="0 0 600.000000 600.000000"
 preserveAspectRatio="xMidYMid meet">
<metadata>
Created by potrace 1.11, written by Peter Selinger 2001-2013
</metadata>
<g transform="translate(0.000000,600.000000) scale(0.100000,-0.100000)"
fill="#000000" stroke="none">
<path d="M3145 5689 c-186 -189 -415 -356 -885 -644 -462 -283 -620 -382 -792
-497 -873 -582 -1307 -1118 -1423 -1758 -23 -127 -31 -402 -15 -527 14 -114
58 -295 96 -397 43 -114 149 -313 222 -415 309 -433 777 -693 1292 -717 491
-23 963 172 1353 559 53 54 97 93 97 89 0 -5 -9 -43 -19 -84 -59 -228 -203
-437 -410 -594 -148 -112 -393 -219 -551 -240 -27 -4 -50 -9 -50 -13 0 -13
127 -91 187 -115 161 -64 336 -90 608 -89 691 0 1394 217 1755 541 l54 49 -94
6 c-450 31 -770 328 -826 766 l-7 54 74 -77 c245 -258 545 -379 900 -363 252
12 458 77 664 211 257 167 445 414 540 708 47 145 65 265 65 438 0 898 -479
1744 -1365 2410 -348 261 -754 493 -1208 689 -103 45 -189 81 -190 81 -1 0
-34 -32 -72 -71z"/>
</g>
</svg>
